<svg width="28" height="27" viewBox="0 0 28 27" fill="none" xmlns="http://www.w3.org/2000/svg">
<path d="M9.69774 21.2166C9.69774 21.3234 9.57495 21.4088 9.42012 21.4088C9.24394 21.4248 9.12114 21.3394 9.12114 21.2166C9.12114 21.1098 9.24394 21.0244 9.39876 21.0244C9.55893 21.0084 9.69774 21.0938 9.69774 21.2166ZM8.03735 20.9764C7.99998 21.0831 8.10676 21.2059 8.26693 21.238C8.40574 21.2914 8.5659 21.238 8.59793 21.1312C8.62997 21.0244 8.52853 20.9016 8.36836 20.8536C8.22955 20.8162 8.07473 20.8696 8.03735 20.9764ZM10.3971 20.8856C10.2423 20.923 10.1355 21.0244 10.1515 21.1472C10.1676 21.254 10.3064 21.3234 10.4665 21.286C10.6214 21.2487 10.7281 21.1472 10.7121 21.0404C10.6961 20.939 10.552 20.8696 10.3971 20.8856ZM13.9101 0.427109C6.5051 0.427109 0.840576 6.04893 0.840576 13.4539C0.840576 19.3747 4.5671 24.4413 9.88994 26.2245C10.5733 26.3473 10.8136 25.9255 10.8136 25.5785C10.8136 25.2475 10.7975 23.4216 10.7975 22.3004C10.7975 22.3004 7.06034 23.1012 6.27553 20.7094C6.27553 20.7094 5.6669 19.1558 4.79133 18.7554C4.79133 18.7554 3.56873 17.9172 4.87675 17.9332C4.87675 17.9332 6.20613 18.04 6.93755 19.3106C8.10676 21.3714 10.0661 20.7788 10.8296 20.4265C10.9524 19.5723 11.2994 18.9796 11.6838 18.6273C8.69937 18.2963 5.68826 17.8638 5.68826 12.7278C5.68826 11.2596 6.09401 10.5229 6.94823 9.58325C6.80942 9.23622 6.35562 7.80541 7.08704 5.95816C8.20286 5.61114 10.7708 7.39966 10.7708 7.39966C11.8386 7.10068 12.9865 6.94585 14.1237 6.94585C15.2608 6.94585 16.4087 7.10068 17.4765 7.39966C17.4765 7.39966 20.0444 5.6058 21.1603 5.95816C21.8917 7.81075 21.4379 9.23622 21.2991 9.58325C22.1533 10.5282 22.6765 11.265 22.6765 12.7278C22.6765 17.8798 19.5319 18.2909 16.5475 18.6273C17.0387 19.049 17.4551 19.8499 17.4551 21.1045C17.4551 22.9037 17.4391 25.13 17.4391 25.5678C17.4391 25.9148 17.6847 26.3366 18.3627 26.2138C23.7016 24.4413 27.3213 19.3747 27.3213 13.4539C27.3213 6.04893 21.3151 0.427109 13.9101 0.427109ZM6.02994 18.8408C5.96054 18.8942 5.97656 19.017 6.06732 19.1184C6.15274 19.2039 6.27553 19.2412 6.34494 19.1718C6.41434 19.1184 6.39833 18.9957 6.30757 18.8942C6.22214 18.8088 6.09935 18.7714 6.02994 18.8408ZM5.45335 18.4084C5.41598 18.4778 5.46936 18.5632 5.57614 18.6166C5.66156 18.67 5.76834 18.654 5.80571 18.5792C5.84308 18.5098 5.7897 18.4244 5.68292 18.371C5.57614 18.339 5.49072 18.355 5.45335 18.4084ZM7.18314 20.309C7.09772 20.3784 7.12975 20.5386 7.25254 20.64C7.37534 20.7628 7.53016 20.7788 7.59957 20.6934C7.66897 20.624 7.63694 20.4638 7.53016 20.3624C7.41271 20.2396 7.25254 20.2236 7.18314 20.309ZM6.57451 19.5242C6.48909 19.5776 6.48909 19.7164 6.57451 19.8392C6.65993 19.962 6.80408 20.0154 6.87348 19.962C6.95891 19.8926 6.95891 19.7538 6.87348 19.631C6.79874 19.5082 6.65993 19.4548 6.57451 19.5242Z" fill="#343434"/>
</svg>
