<svg width="24" height="25" viewBox="0 0 24 25" fill="none" xmlns="http://www.w3.org/2000/svg">
<path d="M22.2096 0.708434H1.7031C0.763456 0.708434 0 1.48257 0 2.43288V22.9021C0 23.8524 0.763456 24.6265 1.7031 24.6265H22.2096C23.1493 24.6265 23.9181 23.8524 23.9181 22.9021V2.43288C23.9181 1.48257 23.1493 0.708434 22.2096 0.708434ZM7.22881 21.2096H3.68381V9.79517H7.23415V21.2096H7.22881ZM5.45631 8.23622C4.31913 8.23622 3.40085 7.3126 3.40085 6.18076C3.40085 5.04892 4.31913 4.1253 5.45631 4.1253C6.58815 4.1253 7.51177 5.04892 7.51177 6.18076C7.51177 7.31794 6.59349 8.23622 5.45631 8.23622ZM20.5172 21.2096H16.9722V15.6572C16.9722 14.3332 16.9455 12.6301 15.1303 12.6301C13.2831 12.6301 13.0001 14.0716 13.0001 15.5611V21.2096H9.45512V9.79517H12.856V11.3541H12.904C13.3792 10.4572 14.5377 9.51221 16.2622 9.51221C19.8499 9.51221 20.5172 11.8773 20.5172 14.9525V21.2096Z" fill="#343434"/>
</svg>
